<svg xmlns="http://www.w3.org/2000/svg" width="100%" height="100%" viewBox="0 0 64 64" fill="none">
<path opacity="0.2" d="M23.5146 46.1422C20.6861 54.6275 9.37244 54.6275 9.37244 54.6275C9.37244 54.6275 9.37244 43.3138 17.8577 40.4854L23.5146 46.1422Z" fill="#ffffff"/>
<path opacity="0.2" d="M46.1421 29.1716V45.3137C46.1421 45.5764 46.0904 45.8364 45.9899 46.0791C45.8894 46.3217 45.7421 46.5422 45.5564 46.7279L37.4709 54.8134C37.2149 55.0693 36.8943 55.251 36.5432 55.3391C36.192 55.4271 35.8236 55.4182 35.4771 55.3133C35.1307 55.2084 34.8192 55.0115 34.5758 54.7434C34.3325 54.4754 34.1665 54.1463 34.0955 53.7914L32 43.3137L46.1421 29.1716Z" fill="#ffffff"/>
<path opacity="0.2" d="M34.8285 17.8579H18.6864C18.4237 17.8579 18.1637 17.9096 17.921 18.0102C17.6784 18.1107 17.4579 18.258 17.2722 18.4437L9.18674 26.5291C8.93077 26.7851 8.74907 27.1058 8.66102 27.4569C8.57297 27.808 8.58187 28.1765 8.68677 28.5229C8.79167 28.8694 8.98864 29.1809 9.25667 29.4242C9.52471 29.6675 9.85375 29.8335 10.2087 29.9045L20.6864 32L34.8285 17.8579Z" fill="#ffffff"/>
<path d="M23.5146 46.1422C20.6861 54.6275 9.37244 54.6275 9.37244 54.6275C9.37244 54.6275 9.37244 43.3138 17.8577 40.4854" stroke="#ffffff" stroke-width="1.5" stroke-linecap="round" stroke-linejoin="round" fill="#000000"/>
<path d="M48.9718 26.343L32.0012 43.3136L20.6875 31.9999L37.6581 15.0293C44.0841 8.60329 50.5101 8.66597 53.2507 9.07486C53.6726 9.13776 54.0632 9.33454 54.3649 9.63621C54.6665 9.93788 54.8633 10.3285 54.9262 10.7504C55.3351 13.491 55.3978 19.917 48.9718 26.343Z" stroke="#ffffff" stroke-width="1.5" stroke-linecap="round" stroke-linejoin="round" fill="#000000"/>
<path d="M46.1421 29.1716V45.3137C46.1421 45.5764 46.0904 45.8364 45.9899 46.0791C45.8894 46.3217 45.7421 46.5422 45.5564 46.7279L37.4709 54.8134C37.2149 55.0693 36.8943 55.251 36.5432 55.3391C36.192 55.4271 35.8236 55.4182 35.4771 55.3133C35.1307 55.2084 34.8192 55.0115 34.5758 54.7434C34.3325 54.4754 34.1665 54.1463 34.0955 53.7914L32 43.3137" stroke="#ffffff" stroke-width="1.5" stroke-linecap="round" stroke-linejoin="round" fill="#000000"/>
<path d="M34.8285 17.8579H18.6864C18.4237 17.8579 18.1637 17.9096 17.921 18.0102C17.6784 18.1107 17.4579 18.258 17.2722 18.4437L9.18674 26.5291C8.93077 26.7851 8.74907 27.1058 8.66102 27.4569C8.57297 27.808 8.58187 28.1765 8.68677 28.5229C8.79167 28.8694 8.98864 29.1809 9.25667 29.4242C9.52471 29.6675 9.85375 29.8335 10.2087 29.9045L20.6864 32" stroke="#ffffff" stroke-width="1.5" stroke-linecap="round" stroke-linejoin="round" fill="#000000"/>
</svg>