<svg xmlns="http://www.w3.org/2000/svg" width="100%" height="100%" viewBox="0 0 64 64" fill="none">
<path opacity="0.2" d="M52.8479 31.8584L46.0013 18.0009H18.0013L11.1546 31.8585C10.9922 32.1874 10.9233 32.5546 10.9555 32.9199C10.9877 33.2853 11.1197 33.6348 11.3371 33.9302L32.0013 62.0009L52.6654 33.9301C52.8828 33.6347 53.0149 33.2852 53.0471 32.9198C53.0793 32.5544 53.0103 32.1872 52.8479 31.8584V31.8584ZM32.0013 38.0009C31.0124 38.0009 30.0457 37.7076 29.2235 37.1582C28.4012 36.6088 27.7604 35.8279 27.3819 34.9143C27.0035 34.0006 26.9045 32.9953 27.0974 32.0254C27.2903 31.0555 27.7665 30.1646 28.4658 29.4653C29.165 28.7661 30.056 28.2899 31.0259 28.0969C31.9958 27.904 33.0011 28.003 33.9147 28.3815C34.8284 28.7599 35.6093 29.4008 36.1587 30.223C36.7081 31.0452 37.0013 32.0119 37.0013 33.0009C37.0013 33.6575 36.872 34.3077 36.6207 34.9143C36.3695 35.5209 36.0012 36.0721 35.5369 36.5364C35.0726 37.0007 34.5214 37.369 33.9147 37.6203C33.3081 37.8715 32.6579 38.0009 32.0013 38.0009V38.0009Z" fill="#fdfdfd"/>
<path d="M32.0013 38.0009L32.0013 62.0009" stroke="#fdfdfd" stroke-width="1.5" stroke-linecap="round" stroke-linejoin="round" fill="#000000"/>
<path d="M32.0013 38.0009C34.7628 38.0009 37.0013 35.7623 37.0013 33.0009C37.0013 30.2394 34.7628 28.0009 32.0013 28.0009C29.2399 28.0009 27.0013 30.2394 27.0013 33.0009C27.0013 35.7623 29.2399 38.0009 32.0013 38.0009Z" stroke="#fdfdfd" stroke-width="1.5" stroke-linecap="round" stroke-linejoin="round" fill="#000000"/>
<path d="M18.0013 18.0009V8.00085C18.0013 7.47042 18.2121 6.96171 18.5871 6.58664C18.9622 6.21157 19.4709 6.00085 20.0013 6.00085H44.0013C44.5318 6.00085 45.0405 6.21157 45.4156 6.58664C45.7906 6.96171 46.0013 7.47042 46.0013 8.00085V18.0009" stroke="#fdfdfd" stroke-width="1.5" stroke-linecap="round" stroke-linejoin="round" fill="#000000"/>
<path d="M18.0013 18.0009L11.1547 31.8585C10.9922 32.1874 10.9233 32.5546 10.9555 32.9199C10.9876 33.2853 11.1197 33.6348 11.3371 33.9301L32.0013 62.0009L52.6654 33.93C52.8829 33.6346 53.0149 33.2852 53.0471 32.9198C53.0793 32.5544 53.0103 32.1873 52.8479 31.8584L46.0013 18.0009H18.0013Z" stroke="#fdfdfd" stroke-width="1.5" stroke-linecap="round" stroke-linejoin="round" fill="#000000"/>
</svg>