<svg xmlns="http://www.w3.org/2000/svg" width="100%" height="100%" viewBox="0 0 64 65" fill="none">
<path opacity="0.2" d="M22 40.1868C29.1797 40.1868 35 34.3665 35 27.1868C35 20.0071 29.1797 14.1868 22 14.1868C14.8203 14.1868 9 20.0071 9 27.1868C9 34.3665 14.8203 40.1868 22 40.1868Z" fill="#fffdfd"/>
<path d="M22 40.1868C29.1797 40.1868 35 34.3665 35 27.1868C35 20.0071 29.1797 14.1868 22 14.1868C14.8203 14.1868 9 20.0071 9 27.1868C9 34.3665 14.8203 40.1868 22 40.1868Z" stroke="#fffdfd" stroke-width="1.5" stroke-miterlimit="10" fill="#000000"/>
<path d="M38.8516 14.6711C40.6396 14.1673 42.5149 14.0525 44.351 14.3345C46.1871 14.6165 47.9415 15.2887 49.496 16.3058C51.0505 17.3229 52.369 18.6613 53.3626 20.2309C54.3563 21.8004 55.0021 23.5647 55.2565 25.4049C55.5109 27.245 55.368 29.1184 54.8374 30.8986C54.3068 32.6789 53.4009 34.3249 52.1807 35.7256C50.9604 37.1262 49.4542 38.2492 47.7634 39.0187C46.0727 39.7883 44.2366 40.1866 42.379 40.1868" stroke="#fffdfd" stroke-width="1.5" stroke-linecap="round" stroke-linejoin="round" fill="#000000"/>
<path d="M4 49.5359C6.03033 46.6479 8.72573 44.2908 11.8586 42.6636C14.9915 41.0364 18.4699 40.1869 22.0002 40.1868C25.5305 40.1866 29.009 41.0359 32.142 42.6629C35.275 44.2898 37.9706 46.6467 40.0011 49.5346" stroke="#fffdfd" stroke-width="1.5" stroke-linecap="round" stroke-linejoin="round" fill="#000000"/>
<path d="M42.3809 40.1868C45.9115 40.1842 49.3907 41.0324 52.524 42.6596C55.6572 44.2868 58.3523 46.645 60.3809 49.5346" stroke="#fffdfd" stroke-width="1.5" stroke-linecap="round" stroke-linejoin="round" fill="#000000"/>
</svg>